<?xml version="1.0" encoding="utf-8"?>
<!-- Generator: Adobe Illustrator 23.0.5, SVG Export Plug-In . SVG Version: 6.00 Build 0)  -->
<svg version="1.1" id="圖層_1" xmlns="http://www.w3.org/2000/svg" xmlns:xlink="http://www.w3.org/1999/xlink" x="0px" y="0px"
	 viewBox="0 0 16 16" style="enable-background:new 0 0 16 16;" xml:space="preserve">
<title>IG</title>
<g>
	<path d="M8,0C5.8,0,5.6,0,4.7,0C4,0.1,3.4,0.2,2.8,0.4c-0.5,0.2-1,0.5-1.4,0.9c-0.5,0.4-0.8,0.9-1,1.5S0.1,4,0,4.7C0,5.6,0,5.8,0,8
		s0,2.4,0,3.3c0,0.7,0.1,1.3,0.4,1.9c0.2,0.5,0.5,1,0.9,1.4s0.9,0.7,1.4,0.9c0.7,0.3,1.3,0.4,2,0.5c0.9,0,1.1,0,3.3,0s2.4,0,3.3,0
		c0.7,0,1.3-0.1,1.9-0.4c1.1-0.4,1.9-1.3,2.3-2.3c0.2-0.6,0.4-1.3,0.4-1.9c0-0.9,0-1.1,0-3.3s0-2.4,0-3.3c0-0.7-0.1-1.3-0.4-1.9
		c-0.2-0.5-0.5-1-0.9-1.4s-0.9-0.7-1.4-0.9C12.6,0.2,12,0.1,11.3,0C10.4,0,10.2,0,8,0z M8,1.4c2.1,0,2.4,0,3.2,0
		c0.5,0,1,0.1,1.5,0.3C13,1.8,13.4,2,13.6,2.3c0.3,0.3,0.5,0.6,0.6,0.9c0.2,0.5,0.3,1,0.3,1.5c0,0.8,0,1.1,0,3.2s0,2.4,0,3.2
		c0,0.5-0.1,1-0.3,1.5c-0.3,0.7-0.8,1.3-1.5,1.5c-0.5,0.2-1,0.3-1.5,0.3c-0.8,0-1.1,0-3.2,0s-2.4,0-3.2,0c-0.5,0-1-0.1-1.5-0.3
		C3,14,2.6,13.8,2.4,13.5c-0.3-0.3-0.5-0.6-0.6-0.9c-0.2-0.5-0.3-1-0.3-1.5c0-0.8,0-1.1,0-3.2s0-2.4,0-3.2c0-0.5,0.1-1,0.3-1.5
		c0.1-0.3,0.3-0.7,0.6-0.9C2.7,2,3,1.8,3.3,1.7c0.5-0.2,1-0.3,1.5-0.3C5.6,1.4,5.9,1.4,8,1.4"/>
	<path d="M8,10.7c-1.5,0-2.7-1.2-2.7-2.7S6.5,5.3,8,5.3s2.7,1.2,2.7,2.7l0,0C10.7,9.5,9.5,10.7,8,10.7z M8,3.9
		C5.7,3.9,3.9,5.7,3.9,8s1.8,4.1,4.1,4.1s4.1-1.8,4.1-4.1S10.3,3.9,8,3.9L8,3.9 M13.2,3.7c0,0.5-0.4,1-1,1c-0.5,0-1-0.4-1-1
		s0.4-1,1-1C12.8,2.8,13.2,3.2,13.2,3.7"/>
</g>
</svg>
