<?xml version="1.0" encoding="utf-8"?>
<!-- Generator: Adobe Illustrator 23.0.5, SVG Export Plug-In . SVG Version: 6.00 Build 0)  -->
<svg version="1.1" id="圖層_1" xmlns="http://www.w3.org/2000/svg" xmlns:xlink="http://www.w3.org/1999/xlink" x="0px" y="0px"
	 viewBox="0 0 100 100" style="enable-background:new 0 0 100 100;" xml:space="preserve">
<style type="text/css">
	.st0{fill:#7ADFD2;}
</style>
<g>
	<g>
		<path class="st0" d="M34.3,90.9C11.7,82.2,0.5,57,9.2,34.4S43,0.5,65.6,9.2s33.9,33.9,25.3,56.5S56.9,99.6,34.3,90.9z M32.1,96.7
			c25.8,9.9,54.7-3,64.6-28.8s-3-54.7-28.8-64.6s-54.7,3-64.6,28.8S6.3,86.8,32.1,96.7z"/>
	</g>
	<g>
		<g>
			<circle class="st0" cx="35.5" cy="35.6" r="6.2"/>
		</g>
		<g>
			<circle class="st0" cx="70.4" cy="48.9" r="6.2"/>
		</g>
	</g>
	<g>
		<g>
			<path class="st0" d="M40.7,72.8c-6.9-2.6-11.6-8.8-12-15.7c-0.1-1.7,1.2-3.2,3-3.3c1.7-0.1,3.2,1.2,3.3,3c0.2,4.5,3.3,8.4,8,10.2
				c4.6,1.8,9.6,0.9,12.8-2.3c1.2-1.2,3.3-1.2,4.4,0c1.2,1.2,1.3,3.2,0,4.4C55.3,74,47.6,75.4,40.7,72.8z"/>
		</g>
	</g>
</g>
</svg>
