<?xml version="1.0" encoding="utf-8"?>
<!-- Generator: Adobe Illustrator 23.0.5, SVG Export Plug-In . SVG Version: 6.00 Build 0)  -->
<svg version="1.1" id="圖層_2" xmlns="http://www.w3.org/2000/svg" xmlns:xlink="http://www.w3.org/1999/xlink" x="0px" y="0px"
	 viewBox="0 0 300 300" style="enable-background:new 0 0 300 300;" xml:space="preserve">
<style type="text/css">
	.st0{fill:#7ADFD2;}
</style>
<g>
	<g>
		<path class="st0" d="M209,151.5c-3.7,2-4.8,6.3-5.6,9.1c-4.2,15.9-9.8,28.8-17.3,39.5c-11.7,16.8-34.7,34.5-60.9,29.5
			c-13.5-2.6-25.9-11.1-33.1-22.7c-5.9-9.5-8.9-21.6-8.4-34.2c0.7-15.2,6.1-31.1,16.5-48.6c0-0.1,0.1-0.1,0.1-0.1
			c0.1,0,0.2-0.1,0.6-0.1l2.5-0.2c4.4-0.3,9-0.6,13.6-1.3c17.7-2.7,33.6-9.2,47.4-19.3C172.6,97,178.3,90.2,182,82
			c5.7-12.7,4.8-23.2-2.6-29c-5.2-4.1-10.9-6-17-5.7c-8.6,0.4-16.5,2.6-23.7,6.6c-8.4,4.7-16.1,11.2-24.1,20.3
			c-8.8,10.1-17.1,21.4-25.3,34.7c-0.6,0.9-0.7,0.9-1.3,0.8l-0.3-0.1c-0.4-0.1-0.9-0.2-1.5-0.2c-8.3-0.4-16.7-2-25.6-4.8
			c-4.1-1.3-8.2-2.7-12.2-4.1c-2.1-0.7-4.2-1.5-6.3-2.2c-0.7-0.2-1.3-0.4-2-0.5c-0.3-0.1-0.7-0.1-1.2-0.2c-1.2-0.3-2.3-0.6-3.5-0.9
			c-0.5-0.1-1.1-0.2-1.6-0.3c-0.3,0-0.5-0.1-0.8-0.1c-0.1,0-0.3,0-0.4,0c-0.1,0-0.3-0.1-0.3,0c0,0,0,0,0,0.1
			c0.1,0.3,0.2,0.5,0.3,0.8c0.1,0.3,0.3,0.6,0.4,0.8c0.4,0.7,0.7,1.4,1.1,2c0.3,0.6,0.7,1.2,1.1,1.8c0.2,0.3,0.3,0.6,0.5,0.8
			c1.7,2.1,3.8,4,6,5.6c6.1,4.5,13,7.2,18.9,9.3c6.6,2.3,13.4,3.9,20.9,5c-0.1,0.2-0.2,0.4-0.3,0.6l-0.1,0.1
			c-10.6,20.2-25.6,59.3-6.1,93.5c7.9,13.8,20.7,24.7,36.1,30.6c8.5,3.3,17.6,4.9,26.6,4.9c7,0,14.1-1,20.8-3l0.4-0.1
			c27.3-8.3,50.8-33.6,61.4-66c2-6.2,3.1-11.4,3.5-16.4c0.2-3.1,0.2-7.6-2.2-11.4C219,151.5,213.6,149,209,151.5z M169.7,70.1
			c-0.8,4.3-3,8.3-7.2,13.1c-5.1,5.8-11.9,10.8-21.3,15.7c-9.8,5.1-20.3,8.5-31,10c5.8-8.3,12.3-16.8,19.7-24.4
			c7.9-8.1,15.2-13.4,23-16.5c3.3-1.3,6.4-2,9.3-2c1,0,1.9,0.1,2.9,0.2l0.3,0.1c0.8,0.1,1.6,0.2,2.2,0.5l0.2,0.1
			c0.8,0.3,1.8,0.6,2.2,0.9C170,67.9,170,68.6,169.7,70.1z"/>
		<path class="st0" d="M257.6,150.4c-5.8-10.6-14.6-17.4-26-20.3c-6.6-1.7-13.1-1.1-18.1-0.4c-12.4,1.8-22.9,5.7-31.9,11.9
			c-2.8,1.9-5.4,4.1-7.6,6.6c-2.5,3-5.1,7.1-4.6,11.2c0.1,1.1,0.4,2.3,0.7,3.3c0.3,0.9,0.7,1.7,1.1,2.5c0.1,0.1,0.1,0.3,0.3,0.4
			c0.2,0.2,0.4,0,0.6-0.1c1.3-1.2,2.7-2.2,4-3.4c1.4-1.3,2.7-2.5,4.1-3.8c4.9-4.5,11-7.7,17.3-9.9c9.9-3.4,18.7-4.2,27.1-2.4
			c19.2,4.2,19,21.2,16.7,44.8c-0.4,4.1-0.8,7.9-0.9,11.5c-0.1,3.3-0.3,7.8,1.3,11.8c1.3,3.2,3.8,5.4,6.6,5.8c0.3,0,0.6,0.1,1,0.1
			c1.6,0,3.8-0.5,5.8-3C270.2,198.1,267.7,168.6,257.6,150.4z"/>
	</g>
</g>
</svg>
