<svg id="圖層_2" data-name="圖層 2" xmlns="http://www.w3.org/2000/svg" viewBox="0 0 100 100"><defs><style>.cls-1,.cls-2{fill:none;stroke-width:3px;}.cls-1{stroke:#000;stroke-linejoin:round;}.cls-2{stroke:#7adfd2;stroke-linecap:round;stroke-miterlimit:10;}</style></defs><title>service3</title><path class="cls-1" d="M78.67,33.71a4.56,4.56,0,0,1-4.56-4.55,4.69,4.69,0,0,1,.06-.54h-.06A9.19,9.19,0,0,1,65,19.46h0a9,9,0,0,1,1.13-4.39c-7-1.35-14.6,2.69-16.08,3.53-1.66-.94-11.08-5.94-18.61-2.79-9.15,3.84-13.28,18-8.85,28.19s7.08,21.69,7.08,27.89,2.22,12,3.54,12.84,5.32.74,7.23-1.92,4-21.4,4-21.4,1.33-10.33,5.46-9.88a.44.44,0,0,1,.32,0c4.13-.45,5.46,9.88,5.46,9.88s2.07,18.75,4,21.4,5.9,2.81,7.23,1.92,3.54-6.64,3.54-12.84S73,54.18,77.46,44a22.87,22.87,0,0,0,1.75-10.34A4.93,4.93,0,0,1,78.67,33.71Z"/><line class="cls-2" x1="72.67" y1="15.56" x2="73.67" y2="11.22"/><line class="cls-2" x1="77.11" y1="20.67" x2="83.11" y2="16.44"/><line class="cls-2" x1="80.67" y1="26.33" x2="84.11" y2="26"/></svg>