<svg id="圖層_2" data-name="圖層 2" xmlns="http://www.w3.org/2000/svg" viewBox="0 0 100 100"><defs><style>.cls-1{fill:#7adfd2;}</style></defs><title>serviceicon</title><path d="M25.72,57.64a11.88,11.88,0,0,0,3.47,1.48A101.89,101.89,0,0,0,23.91,43.4a23.19,23.19,0,0,1,0-17.24c1.75-4.34,4.6-7.52,8-9a12.54,12.54,0,0,1,4.87-.91c5.82,0,11.62,3.16,12.42,3.62l.74.42.74-.42c1-.59,10.3-5.64,17.29-2.71,3.43,1.44,6.28,4.62,8,9,.22.56.4,1.13.58,1.7a11.76,11.76,0,0,0,2.08-3.08c-2-5-5.43-8.63-9.53-10.35C61.82,11.34,53,15.32,50,16.9c-3-1.58-11.82-5.56-19.19-2.47C26.63,16.18,23.21,20,21.16,25a25.91,25.91,0,0,0,0,19.56A95.91,95.91,0,0,1,25.72,57.64Z"/><path d="M77.66,36.68a20.59,20.59,0,0,1-1.57,6.72C71.91,53,68.88,65,68.88,71.89c0,6-2.15,11-2.88,11.59a4.89,4.89,0,0,1-5.18-1.55c-1-1.46-2.71-11.66-3.71-20.71-.25-1.94-1.73-11.52-6.9-11.2h0L50,50l-.21,0c-5.15-.3-6.65,9.26-6.9,11.23-1,9-2.66,19.22-3.71,20.68A4.91,4.91,0,0,1,34,83.5c-.74-.62-2.89-5.56-2.89-11.61a55.56,55.56,0,0,0-1.76-12.1,11.43,11.43,0,0,0-2.83,1.05,52.66,52.66,0,0,1,1.59,11c0,6.36,2.26,12.79,4.21,14.09a5.48,5.48,0,0,0,3,.73,7.87,7.87,0,0,0,6.33-3c2-2.83,3.91-18.92,4.26-22.08C46.34,57.9,48,52.86,49.69,53h.63c1.7-.17,3.34,5,3.81,8.56.35,3.19,2.21,19.28,4.26,22.11C60.75,87,65.64,87.33,67.67,86s4.21-7.74,4.21-14.09c0-5.61,2.39-16.78,7-27.29a21.88,21.88,0,0,0,.91-2.54A11.89,11.89,0,0,0,77.66,36.68Z"/><path class="cls-1" d="M21.63,71.39h-3A10.42,10.42,0,0,0,8.22,61V58A10.43,10.43,0,0,0,18.63,47.56h3A10.44,10.44,0,0,0,32.05,58v3A10.43,10.43,0,0,0,21.63,71.39ZM14.38,59.48a13.41,13.41,0,0,1,5.75,5.75,13.49,13.49,0,0,1,5.76-5.75,13.57,13.57,0,0,1-5.76-5.76A13.49,13.49,0,0,1,14.38,59.48Z"/><path class="cls-1" d="M81.36,43.56h-3A10.42,10.42,0,0,0,67.94,33.15v-3A10.43,10.43,0,0,0,78.36,19.73h3A10.42,10.42,0,0,0,91.77,30.15v3A10.42,10.42,0,0,0,81.36,43.56ZM74.1,31.65a13.54,13.54,0,0,1,5.76,5.75,13.47,13.47,0,0,1,5.75-5.75,13.47,13.47,0,0,1-5.75-5.75A13.54,13.54,0,0,1,74.1,31.65Z"/></svg>