<svg id="圖層_2" data-name="圖層 2" xmlns="http://www.w3.org/2000/svg" viewBox="0 0 100 100"><defs><style>.cls-1{fill:#fff;stroke:#7adfd2;stroke-miterlimit:10;stroke-width:3px;}</style></defs><title>service4</title><path d="M35.28,86.71a5.48,5.48,0,0,1-3-.73c-1.95-1.3-4.21-7.73-4.21-14.09,0-5.61-2.39-16.78-7-27.29a25.91,25.91,0,0,1,0-19.56c2.05-5.09,5.47-8.86,9.65-10.61C38.18,11.34,47,15.32,50,16.9c3-1.58,11.82-5.56,19.19-2.47h0C73.37,16.18,76.79,20,78.84,25a25.91,25.91,0,0,1,0,19.56c-4.57,10.51-7,21.68-7,27.29,0,6.35-2.26,12.79-4.21,14.09s-6.92,1-9.28-2.29c-2-2.83-3.91-18.92-4.26-22.11C53.66,58,52,52.85,50.32,53h-.63c-1.65-.16-3.35,4.88-3.82,8.59-.35,3.16-2.21,19.25-4.26,22.08A7.87,7.87,0,0,1,35.28,86.71Zm1.56-70.42A12.54,12.54,0,0,0,32,17.2c-3.43,1.44-6.28,4.62-8,9a23.19,23.19,0,0,0,0,17.24C28.09,53,31.12,65,31.12,71.89c0,6,2.15,11,2.89,11.61a4.91,4.91,0,0,0,5.17-1.57c1-1.46,2.71-11.66,3.71-20.68.25-2,1.75-11.53,6.9-11.23L50,50l.19,0h0c5.17-.32,6.65,9.26,6.9,11.2,1,9,2.66,19.25,3.71,20.71A4.89,4.89,0,0,0,66,83.48c.73-.6,2.88-5.54,2.88-11.59,0-6.9,3-18.88,7.21-28.49a23.14,23.14,0,0,0,0-17.24c-1.75-4.34-4.6-7.52-8-9h0c-7-2.93-16.26,2.12-17.29,2.71l-.74.42-.74-.42C48.46,19.45,42.66,16.29,36.84,16.29Z"/><circle class="cls-1" cx="74.08" cy="42.74" r="16.14"/><polygon class="cls-1" points="82.98 39.51 77.31 39.51 77.31 33.83 70.85 33.83 70.85 39.51 65.17 39.51 65.17 45.97 70.85 45.97 70.85 51.64 77.31 51.64 77.31 45.97 82.98 45.97 82.98 39.51"/></svg>